<svg width="27" height="27" viewBox="0 0 27 27" fill="none" xmlns="http://www.w3.org/2000/svg">
<rect width="27" height="27" rx="5" fill="#374379"/>
<ellipse cx="16.3831" cy="21.3439" rx="1.78899" ry="2.19931" transform="rotate(-21.7397 16.3831 21.3439)" fill="white"/>
<ellipse cx="7.76345" cy="15.0954" rx="1.30108" ry="1.5995" transform="rotate(-21.7397 7.76345 15.0954)" fill="white"/>
<ellipse cx="12.4138" cy="17.976" rx="0.650542" ry="0.799748" transform="rotate(-21.7397 12.4138 17.976)" fill="white"/>
<ellipse cx="10.8497" cy="4.39303" rx="0.650542" ry="0.799748" transform="rotate(-21.7397 10.8497 4.39303)" fill="white"/>
<ellipse cx="15.0086" cy="13.0666" rx="0.650542" ry="0.799748" transform="rotate(-21.7397 15.0086 13.0666)" fill="white"/>
<ellipse cx="19.3689" cy="14.3415" rx="1.30108" ry="1.5995" transform="rotate(-21.7397 19.3689 14.3415)" fill="white"/>
<path d="M10.7753 4.20618L19.4426 14.5259M10.7753 4.20618L8.21312 15.3444M10.7753 4.20618L15.0112 12.6337M19.4426 14.5259L16.6079 21.4678M19.4426 14.5259L15.0112 12.6337M16.6079 21.4678L12.7126 18.2857M16.6079 21.4678L15.0112 12.6337M12.7126 18.2857L8.21312 15.3444M12.7126 18.2857L15.0112 12.6337M8.21312 15.3444L15.0112 12.6337" stroke="white"/>
</svg>
