<svg width="1439" height="333" viewBox="0 0 1439 333" fill="none" xmlns="http://www.w3.org/2000/svg">
<path fill-rule="evenodd" clip-rule="evenodd" d="M0 0L20 5.99229C40 12.8406 80 24.8252 120 80.4679C160 136.111 200 234.555 240 234.555C280 234.555 320 136.111 360 98.4447C400 61.635 440 86.4602 480 98.4447C520 111.285 560 111.285 600 111.285C640 111.285 680 111.285 720 136.111C760 160.08 800 209.73 840 215.722C880 221.715 920 184.905 960 197.746C1000 209.73 1040 271.365 1080 277.357C1120 283.35 1160 234.555 1200 234.555C1240 234.555 1280 283.35 1320 252.532C1360 221.715 1400 111.285 1420 55.6427L1440 0V333H1420C1400 333 1360 333 1320 333C1280 333 1240 333 1200 333C1160 333 1120 333 1080 333C1040 333 1000 333 960 333C920 333 880 333 840 333C800 333 760 333 720 333C680 333 640 333 600 333C560 333 520 333 480 333C440 333 400 333 360 333C320 333 280 333 240 333C200 333 160 333 120 333C80 333 40 333 20 333H0V0Z" fill="url(#paint0_linear)"/>
<defs>
<linearGradient id="paint0_linear" x1="760" y1="-223.616" x2="713.59" y2="332.465" gradientUnits="userSpaceOnUse">
<stop stop-color="#0099FF"/>
<stop offset="1" stop-color="#0099FF" stop-opacity="0"/>
</linearGradient>
</defs>
</svg>
