<svg width="1439" height="757" viewBox="0 0 1439 757" fill="none" xmlns="http://www.w3.org/2000/svg">
<path fill-rule="evenodd" clip-rule="evenodd" d="M0 -1L24 41.8689C48 82.7892 96 168.527 144 293.237C192 419.895 240 589.422 288 573.833C336 560.193 384 363.386 432 336.105C480 308.825 528 449.123 576 462.764C624 476.404 672 363.386 720 265.956C768 168.527 816 82.7892 864 112.018C912 139.298 960 279.596 1008 322.465C1056 363.386 1104 308.825 1152 279.596C1200 252.316 1248 252.316 1296 209.447C1344 168.527 1392 82.7892 1416 41.8689L1440 -1V757H1416C1392 757 1344 757 1296 757C1248 757 1200 757 1152 757C1104 757 1056 757 1008 757C960 757 912 757 864 757C816 757 768 757 720 757C672 757 624 757 576 757C528 757 480 757 432 757C384 757 336 757 288 757C240 757 192 757 144 757C96 757 48 757 24 757H0V-1Z" fill="url(#paint0_radial)"/>
<defs>
<radialGradient id="paint0_radial" cx="0" cy="0" r="1" gradientUnits="userSpaceOnUse" gradientTransform="translate(720 378) rotate(90) scale(379 720)">
<stop stop-color="#374379"/>
<stop offset="1" stop-color="#0099FF" stop-opacity="0"/>
</radialGradient>
</defs>
</svg>
