<svg width="1439" height="557" viewBox="0 0 1439 557" fill="none" xmlns="http://www.w3.org/2000/svg">
<path fill-rule="evenodd" clip-rule="evenodd" d="M0 -1L24 41.8689C48 82.7892 96 168.527 144 293.237C192 419.895 240 589.422 288 573.833C336 560.193 384 363.386 432 336.105C480 308.825 528 449.123 576 462.764C624 476.404 672 363.386 720 265.956C768 168.527 816 82.7892 864 112.018C912 139.298 960 279.596 1008 322.465C1056 363.386 1104 308.825 1152 279.596C1200 252.316 1248 252.316 1296 209.447C1344 168.527 1392 82.7892 1416 41.8689L1440 -1V557H1416C1392 557 1344 557 1296 557C1248 557 1200 557 1152 557C1104 557 1056 557 1008 557C960 557 912 557 864 557C816 557 768 557 720 557C672 557 624 557 576 557C528 557 480 557 432 557C384 557 336 557 288 557C240 557 192 557 144 557C96 557 48 557 24 557H0V-1Z" fill="url(#paint0_radial)"/>
<defs>
<radialGradient id="paint0_radial" cx="0" cy="0" r="1" gradientUnits="userSpaceOnUse" gradientTransform="translate(720 378) rotate(90) scale(379 720)">
<stop stop-color="#C1CEE2"/>
<stop offset="1" stop-color="#dfe9f7" stop-opacity="0"/>
</radialGradient>
</defs>
</svg>
